<svg width="472" height="204" viewBox="0 0 472 204" xmlns="http://www.w3.org/2000/svg"><title>Slice 1</title><g fill="none" fill-rule="evenodd"><path d="M.432 127.896c0 1.656.72 5.904 2.016 6.408 1.8.72.936 3.24 5.112 3.456-.144-.216-.216-.648-.216-1.512 0-10.656 8.856-43.632 17.136-51.192-.792-1.728-5.976-4.32-7.848-4.464-5.472 5.688-16.2 36.864-16.2 47.304zM31.104 97.08c-.792.36-4.176 5.4-7.848 13.824-3.24 7.416-5.4 15.48-5.4 19.08.432 2.16 1.296 4.464 3.312 5.616 1.152-.648 2.736-2.88 4.824-5.832 3.744-5.184 7.128-9.144 11.592-13.464 2.808-2.736 5.616-4.104 5.832-4.104-3.312 7.632-3.96 10.584-3.96 12.96 0 4.248 1.296 7.632 6.84 7.632 1.656 0 4.752-1.656 6.192-2.952 0-.432-.288-1.224-.648-1.44-.648 0-2.016.72-3.024.72-1.152 0-1.8-.432-1.8-2.808 0-5.904 4.896-15.408 7.488-18.792 1.296-1.512 2.088-1.584 2.088-1.8-.936-1.8-2.664-3.888-5.112-3.888-4.68 0-11.448 7.128-15.12 11.016-1.656 1.728-6.552 7.776-9.576 11.016.576-4.392 8.136-14.616 10.296-19.872-1.008-3.168-3.456-6.12-5.976-6.912zm42.912 1.296c-7.344 1.8-16.992 17.136-16.992 27.072 0 6.12 3.6 9.72 10.224 10.44 9.72-1.656 20.376-20.088 20.376-35.136 0-9.936-4.392-22.68-9.864-28.584-2.448.432-6.048 3.384-6.696 5.184 6.984 11.16 8.712 16.488 9.576 24.12-1.944-1.8-4.752-3.096-6.624-3.096zm-7.344 34.632c-2.16-.36-3.24-1.656-3.24-4.104 0-7.488 10.368-23.184 17.28-26.136.072.36.072.432.072 2.088 0 11.232-7.344 25.776-14.112 28.152zm49.896-12.168c2.016-6.264 4.68-12.312 7.632-18.576-.864-1.08-4.464-2.304-6.984-2.304-4.68 7.704-7.632 14.4-12.168 21.24-3.6 5.328-6.624 7.776-8.352 8.064-.144-.144-.504-.576-.504-1.296 0-2.52 2.16-9.072 3.024-11.232 4.32-10.224 8.28-15.696 9.36-16.632-1.656-1.656-4.968-2.232-6.552-2.232-5.976 4.392-11.088 16.56-12.888 23.832-.504 2.016-.648 3.384-.648 6.12.792 3.384 4.896 5.472 7.92 5.616 4.464-1.584 9.72-9.72 12.168-13.608-5.4 20.736-15.768 34.056-26.712 34.056-2.16 0-2.88-.36-5.112-2.376-.576.36-1.008.936-1.008 1.512 1.44 2.664 6.552 4.968 11.304 4.968 4.68 0 9.504-2.52 13.896-7.128 6.984-7.272 11.304-15.984 15.624-30.024zM349.008 101.328c-2.16 0-5.616.36-9.216.936 4.896-10.944 6.408-14.112 7.56-15.84 3.96-.576 8.28-1.224 13.536-1.224 1.44 0 3.168.072 6.12.36-.864-4.176-2.664-6.624-4.896-6.624-3.24 0-12.672 1.584-24.696 1.584-2.88 0-4.392-.072-6.264-.36-.288.72-.576 2.016-.576 2.736 0 2.664 2.088 4.536 5.4 4.68-1.152 5.544-2.304 8.856-5.112 16.272-3.312.792-5.832 1.512-6.336 2.016.648 1.656 2.16 2.952 4.248 3.6-4.464 11.736-7.344 18.576-9 22.032 2.016 3.24 4.248 5.472 6.408 6.336 8.136-1.44 12.384-1.872 18.792-1.872 4.824 0 7.416.072 10.08.144.144-.648.144-1.368.144-1.944 0-2.232-.792-4.176-1.872-5.76-8.64.576-16.488 1.8-24.264 3.384.144-2.808 3.096-12.024 7.488-22.248 3.816-.504 8.208-1.44 12.312-1.44 2.088 0 3.6.144 4.824.36.216-.576.36-1.512.36-2.232 0-3.096-1.872-4.896-5.04-4.896zm12.744 26.064c0 3.096.648 5.832 1.512 6.408.648.432 1.728 1.584 1.944 2.088.288.648 1.368 1.224 2.664 1.368-.072-.36-.072-.432-.072-2.088 0-6.048 2.16-15.408 6.192-26.64 4.752-13.176 10.152-22.896 17.64-31.752-.792-1.224-5.76-4.104-8.064-4.536-4.968 6.048-10.152 16.776-16.056 32.904-3.672 10.08-5.76 18.072-5.76 22.248zm17.136-.216c0 4.248 4.536 6.12 5.256 6.12.432 0 .432-.648.432-2.376.072-2.088 1.152-5.184 2.16-7.848 2.448-6.336 3.744-11.448 8.136-16.344-1.872-2.808-5.112-4.392-6.696-4.752-4.32 2.16-6.408 9.648-6.84 11.52-1.872 8.64-2.448 12.024-2.448 13.68zm13.752-31.248c0 .792 1.008 1.728 2.16 1.944.72-1.584 5.976-7.992 8.136-10.008-1.44-2.16-6.48-5.04-8.712-5.04-1.224 3.096-2.232 7.776-2.232 9.432 0 .792.36 1.872.864 2.376-.144.576-.216 1.008-.216 1.296zm25.56 35.64c-2.304-4.392-4.32-8.496-5.616-12.168 7.56-7.56 12.744-14.688 13.824-19.08-.432-1.08-2.376-2.088-4.752-2.52-3.456 7.704-6.624 12.888-10.584 17.424-1.44-4.464-2.016-8.28-2.016-12.024 0-1.44 0-2.016.144-3.024-2.16-.72-5.904-1.512-7.92-1.512-1.224 0-1.44.36-1.44 1.656 0 3.744 2.448 13.176 5.688 20.808-3.6 4.176-10.872 9.36-14.688 11.448.072 1.512.864 2.52 1.872 2.736 4.176-2.448 9.288-6.192 14.184-10.584 1.8 4.392 4.032 7.848 5.616 9.72 2.016-.144 4.68-1.224 5.688-2.88zm7.992-4.392c0 4.248 4.536 6.12 5.256 6.12.432 0 .432-.648.432-2.376.072-2.088 1.152-5.184 2.16-7.848 2.448-6.336 3.744-11.448 8.136-16.344-1.872-2.808-5.112-4.392-6.696-4.752-4.32 2.16-6.408 9.648-6.84 11.52-1.872 8.64-2.448 12.024-2.448 13.68zm13.752-31.248c0 .792 1.008 1.728 2.16 1.944.72-1.584 5.976-7.992 8.136-10.008-1.44-2.16-6.48-5.04-8.712-5.04-1.224 3.096-2.232 7.776-2.232 9.432 0 .792.36 1.872.864 2.376-.144.576-.216 1.008-.216 1.296zm1.44 34.632c.648 1.44 4.176 3.744 5.904 3.888 2.808-13.248 5.904-18.36 14.976-24.624.936 2.808 3.096 5.328 5.688 6.624 1.44-1.44 2.88-3.384 2.952-3.96-.648-1.08-.936-2.664-.936-4.752 0-2.304.432-4.536 1.296-6.84-.432-.72-1.872-1.224-3.24-1.224-.792 0-1.152.072-1.512.36-3.456 5.184-7.344 9.072-12.456 13.68 2.016-6.12 3.816-9.792 6.408-12.816-1.152-1.368-4.536-3.024-7.2-3.456-1.152 1.152-2.016 2.664-3.24 5.616-3.456 8.208-7.704 21.888-8.64 27.504z" fill="#FFF"/><g transform="translate(147 3.513)"><path d="M97.587 18.214l-11.04 28.762C52.33 41.903 17.969 60.992 5.057 94.629c-14.943 38.928 4.5 82.6 43.428 97.542 38.928 14.943 82.6-4.5 97.542-43.428 12.785-33.304.4-70.08-27.821-89.368l11.123-28.977 11.201 4.3a7.004 7.004 0 0 0 9.046-4.026 7.006 7.006 0 0 0-4.028-9.044L91.403.844a7.004 7.004 0 0 0-9.045 4.026 7.006 7.006 0 0 0 4.028 9.044l11.201 4.3z" stroke="#FFF" stroke-width="5"/><path d="M76.311 189.513c-36.07 0-65.311-29.24-65.311-65.31 0-8.793 2.452-11.003 10.578-12.834 8.126-1.832 46.224 8.726 73.158 7.033 29.012-1.823 56.098-28.047 46.887 5.8-9.212 33.847-29.241 65.311-65.312 65.311z" fill-opacity=".5" fill="#FFF"/><path d="M75.5 188.856c37.28 0 67.5-30.22 67.5-67.5 0-9.087-.564-13.16-1.956-14.124-4.32-2.991-16.62 23.947-44.812 23.947C58.953 131.179 8 84.077 8 121.356c0 37.28 30.22 67.5 67.5 67.5z" fill="#FFF"/><circle fill="#FFF" opacity=".691" cx="71.5" cy="81.5" r="9.5"/><circle fill="#FFF" opacity=".412" cx="96" cy="67" r="11"/><circle fill="#FFF" cx="95.5" cy="99.5" r="11.5"/></g></g></svg>