<svg width="481" height="244" viewBox="0 0 481 244" xmlns="http://www.w3.org/2000/svg"><title>indyelixir</title><g fill="none" fill-rule="evenodd"><text transform="translate(0 71)" font-size="72" font-family="KaushanScript-Regular, Kaushan Script" fill="#FFF"><tspan x="0" y="78">Indy</tspan></text><text transform="translate(321 71)" font-size="72" font-family="KaushanScript-Regular, Kaushan Script" fill="#FFF"><tspan x="0" y="78">Elixir</tspan></text><g transform="translate(134 4.513)"><path d="M119.587 34.214l-11.04 28.762c-34.217-5.073-68.578 14.016-81.49 47.653-14.943 38.928 4.5 82.6 43.428 97.542 38.928 14.943 82.6-4.5 97.542-43.428 12.785-33.304.4-70.08-27.821-89.368l11.123-28.977 11.201 4.3a7.004 7.004 0 0 0 9.046-4.026 7.006 7.006 0 0 0-4.028-9.044l-54.145-20.784a7.004 7.004 0 0 0-9.045 4.026 7.006 7.006 0 0 0 4.028 9.044l11.201 4.3z" stroke="#FFF" stroke-width="5"/><path d="M98.311 205.513c-36.07 0-65.311-29.24-65.311-65.31 0-8.793 2.452-11.003 10.578-12.834 8.126-1.832 46.224 8.726 73.158 7.033 29.012-1.823 56.098-28.047 46.887 5.8-9.212 33.847-29.241 65.311-65.312 65.311z" fill-opacity=".5" fill="#FFF"/><path d="M97.5 204.856c37.28 0 67.5-30.22 67.5-67.5 0-9.087-.564-13.16-1.956-14.124-4.32-2.991-16.62 23.947-44.812 23.947-37.279 0-88.232-47.102-88.232-9.823 0 37.28 30.22 67.5 67.5 67.5z" fill="#FFF"/><ellipse fill="#FFF" opacity=".691" cx="93.5" cy="97.5" rx="9.5" ry="9.5"/><circle fill="#FFF" opacity=".412" cx="118" cy="83" r="11"/><circle fill="#FFF" cx="117.5" cy="115.5" r="11.5"/></g></g></svg>