<svg width="1400" height="565" viewBox="0 0 1400 565" xmlns="http://www.w3.org/2000/svg"><title>Slice 1</title><path d="M1400 520.552V0H0v520.552-43.449h17.949v-15.399h11.152l.654-7.145v-54.598h9.319v-19.527h8.878l3.993-9.763v-11.534l52.672-1.295 6.049 1.295 2.949-1.295 6.046 1.295 2.953-1.295 6.046 1.295 2.949-1.295 6.046 1.295h7.042v21.297h6.656l3.996 19.527v77.142h10.06l-3.208-5.877 3.208-7.221-3.208-5.078 3.208-7.214-3.208-5.078 3.208-7.214-3.208-5.085 3.208-7.214-3.208-5.078 3.208-7.221-3.208-5.078 3.208-7.214-3.208-5.078v-7.214h34.083v-6.422h24.983v-37.434h43.439v-22.737h7.311v-5.685h-14.211v-2.432h21.111l2.029-63.342v63.342h12.589l2.029-14.621v14.621h23.547l2.029-37.352v37.352h21.925v2.432h-14.208v5.685h7.308v22.737h47.983v40.631h8.027v3.225h8.581l-3.207 7.214 3.207 5.078-3.207 7.214 3.207 5.078-3.207 7.221 3.207 5.078v2.412h12.282v-60.972h8.971l-.51-102.504-1.019-2.357 1.529-2.467-.703-6.725-1.378-2.356 1.268-2.466-1.268-10.301v-6.209h13.67v-9.997l-1.915-1.916 1.915-1.908 1.02-2.557 1.02 2.557-1.02 1.908v11.913h16.068l-1.53-6.036 3.955-5.36-1.529 5.36v6.036h14.524l1.02-8.592 1.405 8.592 1.02-8.592v8.592h18.672l-1.253 6.209 1.253 10.301-1.378 2.466-.702 2.356 1.529 6.725-1.019 2.467-.51 2.357v107.321h14.331v49.733h4.451l3.624-9.508 1.93-119.876 3.155 3.308v-18.748h9.219l2.406-4.968 10.369-11.438v-1.791h20.574v1.791l12.774 11.438v4.968h9.219l3.156 18.748 1.929-3.308 3.625 119.876 2.507 63.499v-6.835h5.085v-9.178h7.001v-2.176l5.801-35.044-2.714-2.315s.179-2.846-.014-3.783c-.413-.483.317-1.254 1.667-1.654 1.115.301.878 1.716 1.082 1.861l7.793-17.253 1.474-2.743.021-8.73-5.643-9.294 5.925 3.35 3.178-66.816c-.313-.167-.531-.443-.986-1.736 0-.325.215-.599.014-2.198l2.921-4.527 1.13-2.129c0-.599.248-1.137.73-2.06.083-.399-.276-1.309-.523-2.446 0 0-2.95-3.962-3.446-4.396-.179-.082-.716-.379-.51-2.26l1.696 2.35c.386.179.895-.097 3.059-1.206 0 0-.221-.276-1.475-1.722 0 0 0-.194 2.619-1.668 0 0 .165.386 2.273 1.695.689-.751.552-1.785.303-2.253-.124-.235-.027-.317.221-1.895.648-.027.731.503.22 1.633.097.241.372 1.033.372 1.985 0 1.143-1.639 2.28-2.094 3.251-.221.641.262 1.42.124 2.922-.151 1.502.606 3.149-.331 4.334.524.379.882 1.02 2.839 1.75l-.634 2.115 2.398 4.527s.537 1.867.537 2.198c0 .319-.207.59-.978 1.736l3.181 67.059 6.355-3.593-6.064 9.986 1.475 8.038.988 3.942 6.794 16.06c.224-.101-.041-1.561 2.443-1.467 0 0 .73.771.303 2.722l-2.715 2.315v2.315l5.802 35.044v2.176h7.001v9.178h5.085l1.998 6.835V139.485h5.36v-12.85h4.479v-10.081h7.165v-6.504l16.523-14.338.896-31.826L698.732 37l.896 26.886v31.826h16.357l.895-31.826L718.011 37l.895 26.886 3.073 31.826 13.436 14.338v6.504h7.18v10.081h4.478v12.85h5.361l2.742 337.618 1.075-19.692v-17.825l11.383-4.506h17.611l1.075-6.229.854-15.461v-12.457l2.577-1.503 16.536-16.109h4.948l16.536 16.109 2.577 1.503.855 12.457 1.074 15.461v6.229h17.611l11.369 4.506v3.005l1.075 14.82 2.425 19.692v-153.63l14.36-20.105.73-8.613.813 9.481 13.119-.868.73-8.613.8 9.481 13.118-.868.731-8.613.813 9.481 13.105-.868.731-8.613.95 9.481 13.491 19.237v153.63h5.691v-24.908h8.131v-25.411h12.292V323.101h13.822v-49.457h77.956v78.471H1068l-3.52 10.419 3.52 4.395-3.52 10.418 3.52 4.403-3.52 10.418 3.52 4.403-3.52 10.418 3.52 4.396-3.52 10.418 3.52 4.403-3.52 10.418v4.32h15v-7.552h12.8V316.824h24.78v-86.402h50.12l1.17-41.183v3.436c4.26-1.03 6.22 3.242 9.36 4.791v6.918c-3.12-1.54-6.28-7.106-9.36-4.901v30.939h50.14v171.64h14.16l-2.44 5.699v17.866h9.44l3.87-2.329v-8.834h4.74l.96-1.674-.96-2.907.96-6.636-.96-2.907.96-6.635-.96-2.908.96-6.628-.96-2.908.96-6.635-.96-2.908.96-6.635-.96-2.908.96-6.635-.96-2.9.96-6.636-.96-2.908.96-6.635 4.1-24.646v17.694h11.69v3.479h10.43v-5.69h20.22v5.69h18.94l.95 3.473-.95 6.635.95 2.908-.95 6.636.95 2.9-.95 6.635.95 2.908-.95 6.635.95 2.908-.95 6.635.95 2.908-.95 6.628.95 2.908-.95 6.635.95 2.907-.95 6.636.95 2.907-.95 6.629.95 2.914-.95 6.628.95 2.908 4.15 1.33v-43.463h4.2v-3.37h12.81v3.37h9.45v37.282h6.31v13.877h7.69v16.138h6.75l2.46-50.747 10.88.813h10.9v70.004h8.85v43.449z" fill="#FFF" fill-rule="evenodd" fill-opacity=".1"/></svg>